<svg width="24.000000" height="24.233337" viewBox="0 0 24 24.2333" fill="none" xmlns="http://www.w3.org/2000/svg" xmlns:xlink="http://www.w3.org/1999/xlink">
	<desc>
			Created with Pixso.
	</desc>
	<defs>
		<filter id="filter_2_24_dd" x="0.000000" y="0.000000" width="24.000000" height="24.233337" filterUnits="userSpaceOnUse" color-interpolation-filters="sRGB">
			<feFlood flood-opacity="0" result="BackgroundImageFix"/>
			<feColorMatrix in="SourceAlpha" type="matrix" values="0 0 0 0 0 0 0 0 0 0 0 0 0 0 0 0 0 0 127 0" result="hardAlpha"/>
			<feOffset dx="0" dy="4"/>
			<feGaussianBlur stdDeviation="1.33333"/>
			<feComposite in2="hardAlpha" operator="out" k2="-1" k3="1"/>
			<feColorMatrix type="matrix" values="0 0 0 0 0 0 0 0 0 0 0 0 0 0 0 0 0 0 0.25 0"/>
			<feBlend mode="normal" in2="BackgroundImageFix" result="effect_dropShadow_1"/>
			<feBlend mode="normal" in="SourceGraphic" in2="effect_dropShadow_1" result="shape"/>
		</filter>
	</defs>
	<g filter="url(#filter_2_24_dd)">
		<rect rx="-0.500000" width="15.000000" height="15.000000" transform="translate(4.500000 0.733337)" fill="#FFFFFF" fill-opacity="0"/>
		<path d="M9.33 15.56C8.59 15.56 8 14.96 8 14.23C8 13.49 8.59 12.9 9.33 12.9C10.06 12.9 10.66 13.49 10.66 14.23C10.66 14.96 10.06 15.56 9.33 15.56Z" stroke="#FFFFFF" stroke-opacity="1.000000" stroke-width="1.800000" stroke-linejoin="round"/>
		<path d="M17.33 15.56C16.59 15.56 16 14.96 16 14.23C16 13.49 16.59 12.9 17.33 12.9C18.06 12.9 18.66 13.49 18.66 14.23C18.66 14.96 18.06 15.56 17.33 15.56Z" stroke="#FFFFFF" stroke-opacity="1.000000" stroke-width="1.800000" stroke-linejoin="round"/>
		<path d="M7.77 4.23L19.33 4.23L18.21 9.82C18.15 10.13 17.98 10.4 17.74 10.6C17.49 10.8 17.19 10.9 16.87 10.9L9.83 10.9C9.5 10.9 9.19 10.78 8.94 10.57C8.7 10.35 8.54 10.06 8.49 9.73L7.48 2.06C7.44 1.73 7.28 1.44 7.04 1.23C6.8 1.01 6.48 0.9 6.16 0.89L4.66 0.89" stroke="#FFFFFF" stroke-opacity="1.000000" stroke-width="1.800000" stroke-linejoin="round" stroke-linecap="round"/>
	</g>
</svg>
