<svg width="32.000000" height="32.000000" viewBox="0 0 32 32" fill="none" xmlns="http://www.w3.org/2000/svg" xmlns:xlink="http://www.w3.org/1999/xlink">
	<desc>
			Created with Pixso.
	</desc>
	<defs/>
	<circle id="Ellipse 1" cx="16.000000" cy="16.000000" r="16.000000" fill="#FFFFFF" fill-opacity="1.000000"/>
	<circle id="Ellipse 1" cx="16.000000" cy="16.000000" r="15.000000" stroke="#FE5F1E" stroke-opacity="1.000000" stroke-width="2.000000"/>
	<path id="Vector" d="M19.84 15.04L16.96 15.04L16.96 12.16C16.96 11.62 16.53 11.2 16 11.2C15.47 11.2 15.04 11.62 15.04 12.16L15.04 15.04L12.16 15.04C11.63 15.04 11.2 15.46 11.2 16C11.2 16.53 11.63 16.95 12.16 16.95L15.04 16.95L15.04 19.84C15.04 20.37 15.47 20.8 16 20.8C16.53 20.8 16.96 20.37 16.96 19.84L16.96 16.95L19.84 16.95C20.37 16.95 20.8 16.53 20.8 16C20.8 15.46 20.37 15.04 19.84 15.04Z" fill="#EB5A1E" fill-opacity="1.000000" fill-rule="nonzero"/>
</svg>
